<svg xmlns="http://www.w3.org/2000/svg" viewBox="0 0 67 75" width="67" height="75">
	<defs>
		<clipPath clipPathUnits="userSpaceOnUse" id="cp1">
			<path d="M-95 -2567L1030 -2567L1030 225L-95 225Z" />
		</clipPath>
	</defs>
	<style>
		tspan { white-space:pre }
		.shp0 { fill: #bebfc2 } 
	</style>
	<g id="iPhone X, XS, 11 Pro – 1" clip-path="url(#cp1)">
		<g id="Footer">
			<g id="Group 185">
				<g id="Activity">
					<g id="user">
						<g id="Group 149">
							<g id="Group 148">
								<path id="Path 109" class="shp0" d="M33.2 0C22.61 0 13.94 8.66 13.94 19.26C13.94 29.86 22.61 38.52 33.2 38.52C43.8 38.52 52.46 29.86 52.46 19.26C52.46 8.66 43.8 0 33.2 0Z" />
							</g>
						</g>
						<g id="Group 151">
							<g id="Group 150">
								<path id="Path 110" class="shp0" d="M66.26 53.91C65.75 52.65 65.08 51.47 64.32 50.38C60.45 44.66 54.48 40.87 47.75 39.95C46.91 39.86 45.99 40.03 45.31 40.54C41.78 43.14 37.58 44.49 33.2 44.49C28.83 44.49 24.63 43.14 21.09 40.54C20.42 40.03 19.5 39.78 18.65 39.95C11.93 40.87 5.87 44.66 2.09 50.38C1.33 51.47 0.66 52.73 0.15 53.91C-0.1 54.41 -0.02 55 0.24 55.51C0.91 56.68 1.75 57.86 2.51 58.87C3.68 60.47 4.95 61.9 6.38 63.24C7.55 64.42 8.9 65.51 10.24 66.61C16.89 71.57 24.88 74.18 33.12 74.18C41.36 74.18 49.35 71.57 56 66.61C57.34 65.6 58.69 64.42 59.86 63.24C61.21 61.9 62.56 60.47 63.73 58.87C64.57 57.78 65.33 56.68 66 55.51C66.42 55 66.51 54.41 66.26 53.91Z" />
							</g>
						</g>
					</g>
				</g>
			</g>
		</g>
	</g>
</svg>