<svg xmlns="http://www.w3.org/2000/svg" viewBox="0 0 71 70" width="71" height="70">
	<defs>
		<clipPath clipPathUnits="userSpaceOnUse" id="cp1">
			<path d="M-286 -2569L839 -2569L839 223L-286 223Z" />
		</clipPath>
	</defs>
	<style>
		tspan { white-space:pre }
		.shp0 { fill: #bebfc2 } 
	</style>
	<g id="iPhone X, XS, 11 Pro – 1" clip-path="url(#cp1)">
		<g id="Footer">
			<g id="Group 185">
				<g id="Activity">
					<path id="biceps" class="shp0" d="M69.65 28.54C69.1 28.16 68.41 28.07 67.78 28.3L63.46 29.89C60.53 27.81 56.87 26.68 53.01 26.68C47.67 26.68 42.7 28.9 39.68 32.55C37.32 31.03 34.5 30.48 31.65 31.04C29.66 31.44 27.84 32.35 26.4 33.62C25.49 28.31 28.51 23.33 32.55 17.63C34.36 16.67 36.67 16.73 39.09 16.79C40.57 16.83 42.1 16.86 43.58 16.66C45.9 16.35 47.77 14.93 48.69 12.78C49.62 10.63 49.37 8.3 48 6.4L45.23 2.55C43.76 0.5 41.23 -0.43 38.78 0.19C31.53 2 25.06 5.32 19.56 10.05C15.06 13.92 11.2 18.74 8.09 24.38C2.51 34.5 1.07 44.09 1 46.66C1 46.79 1.01 46.92 1.03 47.05C1.81 51.65 5.21 55.83 10.59 58.82C15.73 61.66 22.32 63.23 29.17 63.23C35.86 63.23 42.23 61.75 47.29 59.06L58.29 68.99C58.67 69.33 59.15 69.52 59.66 69.52L68.48 69.53L68.49 69.53C69.03 69.53 69.54 69.31 69.93 68.93C70.31 68.55 70.52 68.03 70.52 67.49L70.52 30.21C70.52 29.54 70.2 28.92 69.65 28.54L69.65 28.54Z" />
				</g>
			</g>
		</g>
	</g>
</svg>