<svg xmlns="http://www.w3.org/2000/svg" viewBox="0 0 70 70" width="70" height="70">
	<defs>
		<clipPath clipPathUnits="userSpaceOnUse" id="cp1">
			<path d="M-335 -365L790 -365L790 2427L-335 2427Z" />
		</clipPath>
	</defs>
	<style>
		tspan { white-space:pre }
		.shp0 { fill: #ffffff } 
	</style>
	<g id="iPhone X, XS, 11 Pro – 1" clip-path="url(#cp1)">
		<g id="Group 182">
			<g id="Group 181">
				<g id="Group 159">
					<g id="band-aid">
						<path id="Path 135" class="shp0" d="M12.12 34.91C8.31 38.72 5.59 41.44 5.19 41.84C-1.13 48.16 -1.13 58.4 5.19 64.72C11.5 71.03 21.76 71.03 28.07 64.72C29.55 63.24 32.02 60.78 35 57.79L12.12 34.91Z" />
						<path id="Path 136" class="shp0" d="M64.81 5.1C58.5 -1.2 48.24 -1.2 41.93 5.1C41.37 5.66 38.69 8.35 35 12.03L57.88 34.91C61.13 31.66 63.67 29.12 64.81 27.98C71.13 21.66 71.13 11.43 64.81 5.1L64.81 5.1Z" />
						<path id="Path 137" fill-rule="evenodd" class="shp0" d="M55.02 37.77C49.72 43.07 43.27 49.52 37.86 54.93L14.98 32.05C20.29 26.74 26.82 20.21 32.14 14.89L55.02 37.77ZM27.86 33.54C27.07 32.75 25.78 32.75 24.99 33.54C24.2 34.33 24.2 35.61 24.99 36.4C25.78 37.19 27.07 37.19 27.86 36.4C28.65 35.61 28.65 34.33 27.86 33.54ZM36.46 42.11C35.67 41.32 34.39 41.32 33.6 42.11C32.81 42.91 32.81 44.19 33.6 44.98C34.39 45.77 35.67 45.77 36.46 44.98C37.25 44.19 37.25 42.91 36.46 42.11ZM33.52 36.4C34.31 37.19 35.59 37.19 36.39 36.4C37.18 35.61 37.18 34.32 36.39 33.53C35.59 32.74 34.31 32.74 33.52 33.53C32.73 34.32 32.73 35.61 33.52 36.4ZM36.46 24.94C35.67 24.15 34.39 24.15 33.6 24.94C32.81 25.73 32.81 27.02 33.6 27.81C34.39 28.6 35.67 28.6 36.46 27.81C37.26 27.02 37.26 25.73 36.46 24.94ZM45.04 36.38C45.83 35.59 45.83 34.31 45.04 33.52C44.25 32.73 42.97 32.73 42.18 33.52C41.39 34.31 41.39 35.59 42.18 36.38C42.97 37.18 44.25 37.18 45.04 36.38Z" />
					</g>
				</g>
			</g>
		</g>
	</g>
</svg>