<svg xmlns="http://www.w3.org/2000/svg" viewBox="0 0 66 66" width="66" height="66">
	<defs>
		<clipPath clipPathUnits="userSpaceOnUse" id="cp1">
			<path d="M-778 -2564L347 -2564L347 228L-778 228Z" />
		</clipPath>
	</defs>
	<style>
		tspan { white-space:pre }
		.shp0 { fill: #bebfc2 } 
	</style>
	<g id="iPhone X, XS, 11 Pro – 1" clip-path="url(#cp1)">
		<g id="Footer">
			<g id="Group 185">
				<g id="drugs">
					<g id="Group 177">
						<g id="Group 176">
							<path id="Path 132" class="shp0" d="M60.41 5.29C53.67 -1.45 42.71 -1.45 35.97 5.29L21.72 19.54L37.9 35.71C41.23 32.94 45.45 31.2 50.11 31.2C52.78 31.2 55.32 31.76 57.64 32.75L60.41 29.73C67.14 22.99 67.14 12.03 60.41 5.29Z" />
						</g>
					</g>
					<g id="Group 179">
						<g id="Group 178">
							<path id="Path 133" class="shp0" d="M35.2 38.45L19 22.25L5.06 36.21C-1.68 42.95 -1.68 53.91 5.06 60.65C11.8 67.38 22.89 67.51 29.63 60.78L32.45 57.94C31.46 55.62 30.91 53.08 30.91 50.4C30.91 45.86 32.56 41.74 35.2 38.45Z" />
						</g>
					</g>
					<g id="Group 181">
						<g id="Group 180">
							<path id="Path 134" class="shp0" d="M34.75 50.4C34.75 58.23 40.62 64.62 48.19 65.57L48.19 35.24C40.62 36.19 34.75 42.58 34.75 50.4Z" />
						</g>
					</g>
					<g id="Group 183">
						<g id="Group 182">
							<path id="Path 135" class="shp0" d="M52.03 35.24L52.03 65.57C59.59 64.62 65.47 58.23 65.47 50.4C65.47 42.58 59.59 36.19 52.03 35.24Z" />
						</g>
					</g>
				</g>
			</g>
		</g>
	</g>
</svg>