<svg xmlns="http://www.w3.org/2000/svg" viewBox="0 0 58 57" width="58" height="57">
	<defs>
		<clipPath clipPathUnits="userSpaceOnUse" id="cp1">
			<path d="M-991 -2333L134 -2333L134 459L-991 459Z" />
		</clipPath>
		<radialGradient id="grd1" gradientUnits="userSpaceOnUse"  cx="31.099" cy="22.277" r="43.67">
			<stop offset="0" stop-color="#ff6830"  />
			<stop offset="0.253" stop-color="#f58f3f"  />
			<stop offset="0.517" stop-color="#f56a49"  />
			<stop offset="0.75" stop-color="#eb5b08"  />
			<stop offset="0.821" stop-color="#fa926c"  />
			<stop offset="0.897" stop-color="#f28057"  />
			<stop offset="1" stop-color="#ed4a19"  />
			<stop offset="1" stop-color="#fa8308"  />
		</radialGradient>
		<clipPath clipPathUnits="userSpaceOnUse" id="cp2">
			<path d="M30.02 57C14.51 57 1.98 44.47 1.98 28.97C1.98 13.46 14.51 0.93 30.02 0.93C45.52 0.93 58.05 13.46 58.05 28.97C58.05 44.47 45.52 57 30.02 57Z" />
		</clipPath>
		<linearGradient id="grd2" gradientUnits="userSpaceOnUse"  x1="30.017" y1="2.651" x2="30.017" y2="16.776">
			<stop offset="0" stop-color="#ffffff" stop-opacity="0.8" />
			<stop offset="0.292" stop-color="#ffffff" stop-opacity="0.58" />
			<stop offset="0.962" stop-color="#ffffff" stop-opacity="0.03" />
			<stop offset="1" stop-color="#ffffff" stop-opacity="0" />
		</linearGradient>
		<radialGradient id="grd3" gradientUnits="userSpaceOnUse"  cx="44.412" cy="26.404" r="7.218">
			<stop offset="0.005" stop-color="#ff5a3d"  />
			<stop offset="0.495" stop-color="#ff6241" stop-opacity="0.35" />
			<stop offset="0.627" stop-color="#ff8150" stop-opacity="0.27" />
			<stop offset="0.892" stop-color="#ffd478" stop-opacity="0.09" />
			<stop offset="1" stop-color="#fff98a" stop-opacity="0" />
		</radialGradient>
		<radialGradient id="grd4" gradientUnits="userSpaceOnUse"  cx="11.261" cy="26.404" r="7.218">
			<stop offset="0.005" stop-color="#ff5a3d"  />
			<stop offset="0.495" stop-color="#ff6241" stop-opacity="0.35" />
			<stop offset="0.627" stop-color="#ff8150" stop-opacity="0.27" />
			<stop offset="0.892" stop-color="#ffd478" stop-opacity="0.09" />
			<stop offset="1" stop-color="#fff98a" stop-opacity="0" />
		</radialGradient>
	</defs>
	<style>
		tspan { white-space:pre }
		.shp0 { fill: url(#grd1) } 
		.shp1 { opacity: 0.749;fill: #fff98a } 
		.shp2 { fill: url(#grd2) } 
		.shp3 { fill: #6a0000 } 
		.shp4 { fill: url(#grd3) } 
		.shp5 { fill: url(#grd4) } 
	</style>
	<g id="iPhone X, XS, 11 Pro – 1" clip-path="url(#cp1)">
		<g id="Group 187">
			<g id="Group 93">
				<path id="Ellipse 61" class="shp0" d="M29.02 57C13.51 57 0.98 44.47 0.98 28.97C0.98 13.46 13.51 0.93 29.02 0.93C44.52 0.93 57.05 13.46 57.05 28.97C57.05 44.47 44.52 57 29.02 57Z" />
				<path id="Path 59" class="shp1" d="M32.33 56.01C38.2 55.07 43.64 52.26 47.82 47.96C52.12 43.53 54.81 37.83 55.49 31.75C52.25 43.17 43.59 52.24 32.33 56.01Z" />
			</g>
			<g id="Group 98">
				<g id="Group 97" clip-path="url(#cp2)">
					<path id="Path 60" class="shp2" d="M30.02 15.29C41.57 15.29 51.69 21.34 57.3 30.42C57.34 29.84 57.37 29.26 57.37 28.67C57.37 13.76 45.12 1.67 30.02 1.67C14.91 1.67 2.67 13.76 2.67 28.67C2.67 29.26 2.69 29.84 2.73 30.42C8.34 21.34 18.46 15.29 30.02 15.29Z" />
					<g id="Group 96">
						<g id="Group 94">
							<path id="Path 61" class="shp3" d="M15.07 18.19C15.78 18.24 16.44 18.39 17.09 18.55C17.41 18.63 17.73 18.72 18.05 18.82C18.36 18.92 18.67 19.03 18.98 19.14C19.28 19.25 19.59 19.37 19.88 19.5C20.19 19.62 20.48 19.76 20.77 19.9C21.07 20.03 21.35 20.18 21.64 20.32C21.93 20.47 22.21 20.63 22.49 20.79C23.17 21.17 23.41 22.02 23.03 22.7C22.9 22.93 22.71 23.12 22.49 23.24C22.21 23.39 21.93 23.55 21.65 23.69C21.36 23.84 21.08 23.99 20.78 24.12C20.49 24.25 20.2 24.39 19.9 24.51C19.61 24.64 19.31 24.75 19 24.87C18.7 24.98 18.39 25.08 18.08 25.18C17.77 25.28 17.45 25.37 17.13 25.45C16.48 25.61 15.83 25.75 15.12 25.8C15.52 25.21 15.98 24.72 16.45 24.25C16.68 24.02 16.92 23.79 17.17 23.57C17.41 23.35 17.66 23.15 17.91 22.94C18.16 22.74 18.42 22.54 18.68 22.35C18.94 22.16 19.2 21.98 19.47 21.8C19.73 21.61 20.01 21.45 20.27 21.28C20.55 21.11 20.82 20.94 21.1 20.79L21.1 23.24C20.82 23.08 20.54 22.91 20.27 22.74C20 22.57 19.72 22.4 19.45 22.22C19.19 22.03 18.92 21.86 18.66 21.66C18.4 21.47 18.14 21.27 17.88 21.06C17.63 20.86 17.38 20.65 17.13 20.43C16.89 20.21 16.64 19.98 16.41 19.75C15.94 19.27 15.47 18.78 15.07 18.19Z" />
							<path id="Path 62" class="shp3" d="M44.97 25.8C44.27 25.74 43.62 25.6 42.98 25.43C42.66 25.35 42.35 25.26 42.04 25.15C41.73 25.06 41.43 24.95 41.13 24.83C40.83 24.72 40.53 24.6 40.24 24.47C39.95 24.35 39.66 24.21 39.37 24.07C39.09 23.94 38.81 23.79 38.52 23.64C38.24 23.5 37.97 23.34 37.69 23.18C37.03 22.8 36.8 21.95 37.18 21.29C37.31 21.07 37.49 20.89 37.69 20.77C37.97 20.62 38.24 20.46 38.52 20.32C38.8 20.17 39.08 20.02 39.36 19.89C39.65 19.76 39.93 19.62 40.22 19.5C40.51 19.37 40.81 19.25 41.11 19.14C41.4 19.03 41.71 18.92 42.01 18.82C42.32 18.72 42.63 18.63 42.94 18.55C43.58 18.39 44.22 18.25 44.92 18.19C44.52 18.77 44.08 19.26 43.63 19.73C43.4 19.96 43.17 20.19 42.93 20.4C42.69 20.62 42.45 20.83 42.2 21.03C41.96 21.23 41.71 21.43 41.45 21.62C41.2 21.81 40.94 21.99 40.69 22.17C40.43 22.35 40.16 22.52 39.9 22.69C39.63 22.86 39.36 23.02 39.09 23.18L39.09 20.77C39.37 20.93 39.64 21.1 39.91 21.27C40.17 21.44 40.44 21.61 40.7 21.79C40.96 21.97 41.22 22.15 41.47 22.35C41.73 22.54 41.98 22.74 42.23 22.94C42.48 23.14 42.72 23.36 42.96 23.57C43.2 23.79 43.44 24.02 43.67 24.25C44.13 24.72 44.57 25.22 44.97 25.8Z" />
						</g>
						<path id="Path 63" class="shp3" d="M19.97 42.78C19.97 42.78 19.96 42.63 19.98 42.35C20 42.08 20.02 41.67 20.09 41.17C20.24 40.15 20.55 38.71 21.25 37.12C21.6 36.33 22.04 35.51 22.6 34.73C23.16 33.95 23.84 33.21 24.62 32.6C25.01 32.29 25.42 32.01 25.85 31.78C26.28 31.53 26.73 31.33 27.19 31.18C28.11 30.85 29.06 30.7 30.01 30.69L30.05 30.69L30.14 30.69L30.22 30.69L30.37 30.7L30.69 30.72L30.84 30.73L31.03 30.75L31.41 30.8C31.66 30.82 31.89 30.88 32.13 30.94C32.36 30.99 32.59 31.06 32.82 31.14C33.05 31.21 33.28 31.3 33.51 31.39C33.73 31.49 33.95 31.6 34.17 31.72C34.38 31.83 34.6 31.96 34.8 32.1C35.01 32.22 35.21 32.37 35.41 32.53C36.19 33.13 36.87 33.87 37.44 34.64C38.01 35.42 38.46 36.24 38.8 37.03C39.5 38.62 39.81 40.07 39.95 41.09C40.03 41.59 40.04 42 40.06 42.27C40.07 42.55 40.06 42.7 40.06 42.7L39.88 42.36C39.77 42.14 39.58 41.82 39.36 41.44C38.9 40.67 38.23 39.63 37.35 38.6C36.47 37.58 35.38 36.6 34.13 35.96C33.98 35.88 33.82 35.81 33.66 35.74C33.5 35.66 33.34 35.59 33.17 35.54C33.01 35.47 32.84 35.42 32.67 35.38C32.5 35.32 32.33 35.27 32.16 35.24C31.99 35.19 31.81 35.15 31.64 35.14C31.46 35.11 31.28 35.07 31.12 35.06L30.87 35.04L30.75 35.02L30.59 35.02L30.02 35.01C29.29 35 28.57 35.1 27.88 35.26C27.71 35.29 27.54 35.36 27.37 35.4C27.2 35.44 27.04 35.51 26.87 35.57C26.54 35.69 26.23 35.85 25.91 36.01C24.67 36.67 23.58 37.66 22.7 38.69C21.82 39.72 21.14 40.76 20.68 41.52C20.45 41.91 20.27 42.22 20.15 42.44C20.03 42.66 19.97 42.78 19.97 42.78Z" />
						<g id="Group 95">
							<path id="Ellipse 62" class="shp4" d="M46.51 32.42C43.45 32.42 40.98 30.98 40.98 29.2C40.98 27.42 43.45 25.98 46.51 25.98C49.57 25.98 52.04 27.42 52.04 29.2C52.04 30.98 49.57 32.42 46.51 32.42Z" />
							<path id="Ellipse 63" class="shp5" d="M13.36 32.42C10.3 32.42 7.83 30.98 7.83 29.2C7.83 27.42 10.3 25.98 13.36 25.98C16.42 25.98 18.89 27.42 18.89 29.2C18.89 30.98 16.42 32.42 13.36 32.42Z" />
						</g>
					</g>
				</g>
			</g>
		</g>
	</g>
</svg>