<svg xmlns="http://www.w3.org/2000/svg" viewBox="0 0 53 63" width="53" height="63">
	<defs>
		<clipPath clipPathUnits="userSpaceOnUse" id="cp1">
			<path d="M-91 -2335L1034 -2335L1034 457L-91 457Z" />
		</clipPath>
		<radialGradient id="grd1" gradientUnits="userSpaceOnUse"  cx="9.12" cy="79.667" r="20.533">
			<stop offset="0" stop-color="#391b00" stop-opacity="0.8" />
			<stop offset="1" stop-color="#ffffff" stop-opacity="0" />
		</radialGradient>
		<radialGradient id="grd2" gradientUnits="userSpaceOnUse"  cx="34.727" cy="81.511" r="40.239">
			<stop offset="0.005" stop-color="#ffffa6"  />
			<stop offset="0.079" stop-color="#fffb97"  />
			<stop offset="0.175" stop-color="#fff98a"  />
			<stop offset="0.267" stop-color="#fdf382"  />
			<stop offset="0.407" stop-color="#fae26c"  />
			<stop offset="0.58" stop-color="#f5c849"  />
			<stop offset="0.776" stop-color="#eda419"  />
			<stop offset="0.84" stop-color="#eb9708"  />
			<stop offset="0.929" stop-color="#f18d08"  />
			<stop offset="1" stop-color="#fa8308"  />
		</radialGradient>
		<clipPath clipPathUnits="userSpaceOnUse" id="cp2">
			<path d="M51.57 33.93C48.91 47.97 35.42 57.16 21.38 54.5C7.35 51.84 -1.85 38.35 0.81 24.31C3.47 10.27 16.97 1.08 31 3.74C45.04 6.4 54.23 19.9 51.57 33.93Z" />
		</clipPath>
		<radialGradient id="grd3" gradientUnits="userSpaceOnUse"  cx="38.956" cy="25.874" r="7.136">
			<stop offset="0.005" stop-color="#ff5a3d"  />
			<stop offset="0.65" stop-color="#ff6241" stop-opacity="0.35" />
			<stop offset="0.742" stop-color="#ff8150" stop-opacity="0.27" />
			<stop offset="0.926" stop-color="#ffd478" stop-opacity="0.09" />
			<stop offset="1" stop-color="#fff98a" stop-opacity="0" />
		</radialGradient>
		<radialGradient id="grd4" gradientUnits="userSpaceOnUse"  cx="9.28" cy="25.874" r="7.136">
			<stop offset="0.005" stop-color="#ff5a3d"  />
			<stop offset="0.65" stop-color="#ff6241" stop-opacity="0.35" />
			<stop offset="0.742" stop-color="#ff8150" stop-opacity="0.27" />
			<stop offset="0.926" stop-color="#ffd478" stop-opacity="0.09" />
			<stop offset="1" stop-color="#fff98a" stop-opacity="0" />
		</radialGradient>
		<linearGradient id="grd5" gradientUnits="userSpaceOnUse"  x1="26.191" y1="4.874" x2="26.191" y2="17.89">
			<stop offset="0" stop-color="#ffffff" stop-opacity="0.8" />
			<stop offset="0.292" stop-color="#ffffff" stop-opacity="0.58" />
			<stop offset="0.962" stop-color="#ffffff" stop-opacity="0.03" />
			<stop offset="1" stop-color="#ffffff" stop-opacity="0" />
		</linearGradient>
		<radialGradient id="grd6" gradientUnits="userSpaceOnUse"  cx="-63.694" cy="-16.063" r="15.025">
			<stop offset="0" stop-color="#bddee4"  />
			<stop offset="0.806" stop-color="#2fa7bf"  />
			<stop offset="1" stop-color="#2591d1"  />
		</radialGradient>
	</defs>
	<style>
		tspan { white-space:pre }
		.shp0 { opacity: 0.749;fill: url(#grd1) } 
		.shp1 { fill: url(#grd2) } 
		.shp2 { opacity: 0.749;fill: #fff98a } 
		.shp3 { fill: url(#grd3) } 
		.shp4 { fill: url(#grd4) } 
		.shp5 { fill: #6a0000 } 
		.shp6 { fill: url(#grd5) } 
		.shp7 { fill: url(#grd6) } 
	</style>
	<g id="iPhone X, XS, 11 Pro – 1" clip-path="url(#cp1)">
		<g id="Group 186">
			<path id="Ellipse 1" class="shp0" d="M26.3 62.75C15.9 62.75 7.5 62.24 7.5 61.6C7.5 60.97 15.9 60.45 26.3 60.45C36.7 60.45 45.11 60.97 45.11 61.6C45.11 62.24 36.7 62.75 26.3 62.75Z" />
			<g id="Group 9">
				<g id="Group 2">
					<path id="Ellipse 2" class="shp1" d="M51.57 33.93C48.91 47.97 35.42 57.16 21.38 54.5C7.35 51.84 -1.85 38.35 0.81 24.31C3.47 10.27 16.97 1.08 31 3.74C45.04 6.4 54.23 19.9 51.57 33.93Z" />
					<path id="Path 1" class="shp2" d="M29.28 54.04C34.69 53.18 39.7 50.58 43.55 46.62C47.52 42.54 49.99 37.29 50.62 31.68C47.64 42.21 39.66 50.56 29.28 54.04Z" />
				</g>
				<g id="Group 8">
					<g id="Group 7">
						<g id="Group 6" clip-path="url(#cp2)">
							<g id="Group 5">
								<g id="Group 3">
									<path id="Ellipse 3" class="shp3" d="M41.03 30.85C38 30.85 35.56 29.42 35.56 27.66C35.56 25.9 38 24.47 41.03 24.47C44.05 24.47 46.5 25.9 46.5 27.66C46.5 29.42 44.05 30.85 41.03 30.85Z" />
									<path id="Ellipse 4" class="shp4" d="M11.35 30.85C8.33 30.85 5.88 29.42 5.88 27.66C5.88 25.9 8.33 24.47 11.35 24.47C14.38 24.47 16.82 25.9 16.82 27.66C16.82 29.42 14.38 30.85 11.35 30.85Z" />
								</g>
								<g id="Group 4">
									<path id="Path 2" class="shp5" d="M12.8 24.98C12.8 24.98 12.77 24.93 12.74 24.84C12.71 24.74 12.66 24.6 12.62 24.42C12.58 24.24 12.54 24.01 12.53 23.75C12.52 23.62 12.52 23.48 12.53 23.33C12.53 23.17 12.55 23.02 12.58 22.85C12.6 22.68 12.65 22.51 12.7 22.33C12.75 22.15 12.83 21.97 12.92 21.78C12.99 21.59 13.13 21.42 13.25 21.23C13.38 21.04 13.56 20.88 13.72 20.7C13.9 20.55 14.11 20.4 14.32 20.26C14.54 20.15 14.76 20.03 15 19.95C15.24 19.89 15.48 19.8 15.73 19.77C15.97 19.75 16.21 19.73 16.45 19.7L16.48 19.7L16.57 19.71L16.57 19.71L16.61 19.71L16.68 19.72L16.83 19.73L17.12 19.76C17.2 19.76 17.36 19.79 17.49 19.82C17.62 19.86 17.76 19.89 17.89 19.93C18.15 20 18.36 20.13 18.59 20.24C18.81 20.36 19.01 20.52 19.2 20.67C19.36 20.84 19.54 21 19.67 21.19C19.79 21.38 19.93 21.55 20.01 21.74C20.2 22.12 20.3 22.48 20.36 22.82C20.38 22.98 20.4 23.14 20.41 23.29C20.41 23.44 20.42 23.58 20.4 23.72C20.39 23.98 20.35 24.21 20.31 24.39C20.27 24.57 20.22 24.71 20.19 24.81C20.15 24.9 20.13 24.95 20.13 24.95C20.13 24.95 20.04 24.75 19.87 24.44C19.79 24.28 19.7 24.1 19.58 23.9C19.52 23.8 19.46 23.69 19.39 23.59C19.33 23.48 19.26 23.37 19.17 23.27C19.1 23.16 19.02 23.06 18.93 22.96C18.85 22.85 18.75 22.76 18.65 22.67C18.57 22.57 18.45 22.5 18.36 22.42C18.25 22.35 18.14 22.28 18.04 22.21C17.91 22.18 17.81 22.11 17.69 22.07L17.5 22.02C17.44 22 17.38 21.97 17.33 21.97C17.27 21.96 17.22 21.96 17.16 21.95C17.1 21.94 17.08 21.91 16.96 21.91L16.46 21.89C16.32 21.9 16.17 21.9 16.02 21.91C15.88 21.93 15.75 21.96 15.62 21.97C15.49 22 15.37 22.05 15.24 22.08C15.13 22.13 15.02 22.18 14.9 22.23C14.8 22.31 14.68 22.36 14.58 22.44C14.48 22.53 14.37 22.6 14.28 22.7C14.18 22.79 14.08 22.88 14 22.99C13.91 23.09 13.83 23.19 13.76 23.3C13.67 23.41 13.6 23.52 13.54 23.62C13.46 23.73 13.41 23.83 13.35 23.93C13.23 24.13 13.13 24.32 13.05 24.47C12.89 24.78 12.8 24.98 12.8 24.98Z" />
									<path id="Path 3" class="shp5" d="M32.44 24.98C32.44 24.98 32.42 24.93 32.38 24.84C32.35 24.74 32.3 24.6 32.26 24.42C32.22 24.24 32.18 24.01 32.17 23.75C32.16 23.62 32.16 23.48 32.17 23.33C32.17 23.17 32.19 23.02 32.22 22.85C32.24 22.68 32.29 22.51 32.35 22.33C32.39 22.15 32.48 21.97 32.56 21.78C32.64 21.59 32.78 21.42 32.9 21.23C33.02 21.04 33.2 20.88 33.36 20.7C33.54 20.55 33.75 20.4 33.96 20.26C34.18 20.15 34.41 20.03 34.65 19.95C34.88 19.89 35.13 19.8 35.37 19.77C35.61 19.75 35.85 19.73 36.1 19.7L36.12 19.7L36.21 19.71L36.22 19.71L36.25 19.71L36.33 19.72L36.47 19.73L36.76 19.76C36.84 19.76 37 19.79 37.13 19.82C37.27 19.86 37.4 19.89 37.53 19.93C37.8 20 38.01 20.13 38.23 20.24C38.45 20.36 38.65 20.52 38.84 20.67C39.01 20.84 39.18 21 39.32 21.19C39.44 21.38 39.58 21.55 39.66 21.74C39.84 22.12 39.95 22.48 40 22.82C40.03 22.98 40.05 23.14 40.05 23.29C40.06 23.44 40.06 23.58 40.05 23.72C40.04 23.98 40 24.21 39.95 24.39C39.92 24.57 39.86 24.71 39.83 24.81C39.79 24.9 39.77 24.95 39.77 24.95C39.77 24.95 39.68 24.75 39.52 24.44C39.44 24.28 39.34 24.1 39.22 23.9C39.17 23.8 39.11 23.69 39.03 23.59C38.97 23.48 38.9 23.37 38.82 23.27C38.75 23.16 38.66 23.06 38.57 22.96C38.49 22.85 38.39 22.76 38.3 22.67C38.21 22.57 38.09 22.5 38 22.42C37.89 22.35 37.79 22.28 37.68 22.21C37.55 22.18 37.45 22.11 37.33 22.07L37.14 22.02C37.08 22 37.02 21.97 36.97 21.97C36.91 21.96 36.86 21.96 36.81 21.95C36.75 21.94 36.72 21.91 36.6 21.91L36.11 21.89C35.96 21.9 35.81 21.9 35.67 21.91C35.53 21.93 35.4 21.96 35.26 21.97C35.13 22 35.02 22.05 34.89 22.08C34.77 22.13 34.66 22.18 34.54 22.23C34.44 22.31 34.32 22.36 34.22 22.44C34.12 22.53 34.01 22.6 33.92 22.7C33.82 22.79 33.73 22.88 33.65 22.99C33.55 23.09 33.47 23.19 33.4 23.3C33.32 23.41 33.25 23.52 33.18 23.62C33.11 23.73 33.05 23.83 32.99 23.93C32.87 24.13 32.78 24.32 32.69 24.47C32.53 24.78 32.44 24.98 32.44 24.98Z" />
								</g>
								<path id="Path 4" class="shp5" d="M26.3 41.03C21.35 41.03 16.91 37.4 15 31.78L15.52 31.53C18.14 35.68 22.07 38.06 26.3 38.06C30.54 38.06 34.47 35.68 37.08 31.53L37.6 31.78C35.69 37.4 31.26 41.03 26.3 41.03Z" />
							</g>
							<path id="Path 5" class="shp6" d="M26.19 16.52C36.84 16.52 46.17 22.1 51.33 30.46C51.37 29.93 51.39 29.39 51.39 28.85C51.39 15.11 40.11 3.97 26.19 3.97C12.27 3.97 0.99 15.11 0.99 28.85C0.99 29.39 1.01 29.93 1.05 30.46C6.22 22.1 15.54 16.52 26.19 16.52Z" />
						</g>
					</g>
					<path id="Path 6" fill-rule="evenodd" class="shp7" d="M26.19 10.54C19.08 10.54 5.64 9.5 5.64 5.54C5.64 1.59 19.08 0.54 26.19 0.54C33.3 0.54 46.74 1.59 46.74 5.54C46.74 9.5 33.3 10.54 26.19 10.54ZM26.19 2.27C13.87 2.27 7.51 4.56 7.51 5.54C7.51 6.52 13.87 8.81 26.19 8.81C38.52 8.81 44.87 6.52 44.87 5.54C44.87 4.56 38.52 2.27 26.19 2.27Z" />
				</g>
			</g>
		</g>
	</g>
</svg>