<svg xmlns="http://www.w3.org/2000/svg" viewBox="0 0 74 74" width="74" height="74">
	<defs>
		<clipPath clipPathUnits="userSpaceOnUse" id="cp1">
			<path d="M-529 -2568L596 -2568L596 224L-529 224Z" />
		</clipPath>
	</defs>
	<style>
		tspan { white-space:pre }
		.shp0 { fill: #ffffff } 
	</style>
	<g id="iPhone X, XS, 11 Pro – 1" clip-path="url(#cp1)">
		<g id="Footer">
			<g id="Group 185">
				<g id="Symptoms">
					<g id="Group 147">
						<path id="virus" fill-rule="evenodd" class="shp0" d="M73.09 36.75C73.09 39.26 71.06 41.29 68.55 41.29C66.87 41.29 65.41 40.38 64.62 39.02L60.49 39.02C60.03 43.9 58.1 48.35 55.14 51.92L58.06 54.85C59.58 54.45 61.26 54.84 62.45 56.02C64.22 57.8 64.22 60.68 62.45 62.45C60.67 64.22 57.79 64.22 56.02 62.45C54.84 61.26 54.45 59.58 54.85 58.06L51.92 55.14C48.35 58.1 43.9 60.03 39.02 60.49L39.02 64.62C40.38 65.41 41.29 66.87 41.29 68.55C41.29 71.06 39.26 73.09 36.75 73.09C34.24 73.09 32.21 71.06 32.21 68.55C32.21 66.87 33.12 65.41 34.48 64.62L34.48 60.49C29.6 60.03 25.15 58.1 21.58 55.14L18.65 58.06C19.05 59.58 18.66 61.26 17.48 62.45C15.71 64.22 12.83 64.22 11.05 62.45C9.28 60.68 9.28 57.8 11.05 56.02C12.24 54.84 13.92 54.45 15.44 54.85L18.36 51.92C15.4 48.35 13.47 43.9 13.01 39.02L8.88 39.02C8.09 40.38 6.63 41.29 4.95 41.29C2.44 41.29 0.41 39.26 0.41 36.75C0.41 34.24 2.44 32.21 4.95 32.21C6.63 32.21 8.09 33.12 8.88 34.48L13.01 34.48C13.47 29.6 15.4 25.15 18.36 21.58L15.44 18.65C13.93 19.05 12.24 18.66 11.05 17.48C9.28 15.7 9.28 12.82 11.05 11.05C12.82 9.28 15.7 9.28 17.48 11.05C18.66 12.24 19.05 13.92 18.65 15.44L21.58 18.36C25.15 15.4 29.6 13.47 34.48 13.01L34.48 8.88C33.12 8.09 32.21 6.63 32.21 4.95C32.21 2.44 34.24 0.41 36.75 0.41C39.26 0.41 41.29 2.44 41.29 4.95C41.29 6.63 40.38 8.09 39.02 8.88L39.02 13.01C43.9 13.47 48.35 15.4 51.92 18.36L54.85 15.44C54.45 13.92 54.84 12.24 56.02 11.05C57.8 9.28 60.68 9.28 62.45 11.05C64.22 12.82 64.22 15.7 62.45 17.48C61.26 18.66 59.57 19.05 58.06 18.65L55.14 21.58C58.1 25.15 60.03 29.6 60.49 34.48L64.62 34.48C65.41 33.12 66.87 32.21 68.55 32.21C71.06 32.21 73.09 34.24 73.09 36.75ZM33.2 31.64C33.2 29.45 31.42 27.66 29.23 27.66C27.03 27.66 25.25 29.45 25.25 31.64C25.25 33.83 27.03 35.61 29.23 35.61C31.42 35.61 33.2 33.83 33.2 31.64ZM43.56 44.7C43.56 42.19 41.53 40.16 39.02 40.16C36.52 40.16 34.48 42.19 34.48 44.7C34.48 47.21 36.52 49.24 39.02 49.24C41.53 49.24 43.56 47.21 43.56 44.7ZM50.38 29.94C50.38 28.06 48.85 26.53 46.97 26.53C45.09 26.53 43.56 28.06 43.56 29.94C43.56 31.81 45.09 33.34 46.97 33.34C48.85 33.34 50.38 31.81 50.38 29.94Z" />
					</g>
				</g>
			</g>
		</g>
	</g>
</svg>